# xmcd
#
# Track frame offsets:
#	150
#	13841
#	26492
#	40225
#	51539
#	61834
#	72066
#	85735
#	96731
#	107323
#	142212
#	152826
#	163897
#	178283
#	191287
#	201217
#	211188
#	223738
#	234968
#	247394
#	258087
#	267646
#	277659
#	290085
#	300048
#	308930
#	322132
#
# Disc length: 4414 seconds
#
# Revision: 0
# Processed by: cddbd v1.4PL0 Copyright (c) Steve Scherf et al.
# Submitted via: MusicWizard 6.0.0
#
DISCID=97113c1b
DTITLE=Johnny Cash - Ragged Old Flag/ The Junkie And The Juicehead Minus Me
DYEAR=2002
DGENRE=Country
TTITLE0=The Junkie And The Juicehead Minus Me  (The Junkie And The Juicehead Minus Me)
TTITLE1=Don't Take Your Guns To Town  (The Junkie And The Juicehead Minus Me)
TTITLE2=Broken Freedom Song (By Rosanne Cash)  (The Junkie And The Juicehead Minus Me)
TTITLE3=I Do Believe  (The Junkie And The Juicehead Minus Me)
TTITLE4=Old Slew-Foot (With June Carter)  (The Junkie And The Juicehead Minus Me)
TTITLE5=Keep On The Sunny Side Of Life  (The Junkie And The Juicehead Minus Me)
TTITLE6=Father And Daughter (With Rosey Nix)  (The Junkie And The Juicehead Minus Me)
TTITLE7=Crystal Chandeliers And Burgundy  (The Junkie And The Juicehead Minus Me)
TTITLE8=Friendly Gates (By Carlene Routh)  (The Junkie And The Juicehead Minus Me)
TTITLE9=Billy and Rex and Oral and Bob  (The Junkie And The Juicehead Minus Me)
TTITLE10=Jesus (With June Carter)  (The Junkie And The Juicehead Minus Me)
TTITLE11=Lay Back With My Woman  (The Junkie And The Juicehead Minus Me)
TTITLE12=Ragged Old Flag
TTITLE13=Don't Go Near The Water
TTITLE14=All I Do Is Drive
TTITLE15=Southern Comfort
TTITLE16=King Of The Hill
TTITLE17=Pie In The Sky
TTITLE18=Lonesome To The Bone
TTITLE19=While I've Got It On My Mind
TTITLE20=Good Morning, Friend
TTITLE21=Worried Man
TTITLE22=Please Don't Let Me Out
TTITLE23=What On Earth [will You Go]
TTITLE24=It's All Over (With June Carter)
TTITLE25=Old Time Feeling (With June Carter)
TTITLE26=Lay Me Down In Dixie (With Cindy Cash)
EXTD=(c) 1974, 1975 CBS
EXTT0=
EXTT1=
EXTT2=
EXTT3=
EXTT4=
EXTT5=
EXTT6=
EXTT7=
EXTT8=
EXTT9=
EXTT10=
EXTT11=
EXTT12=
EXTT13=
EXTT14=
EXTT15=
EXTT16=
EXTT17=
EXTT18=
EXTT19=
EXTT20=
EXTT21=
EXTT22=
EXTT23=
EXTT24=
EXTT25=
EXTT26=
PLAYORDER=
